Coordinates
version=1
nRows=38
nColumns=12
inDegrees=yes

Units are S.I. units (second, meters, Newtons, ...)
Angles are in degrees

endheader
time	SC_y	SC_z	SC_x	AC_y	AC_z	AC_x	GH_y	GH_z	GH_yy	EL_x	PS_y
       0.0              -13.07          23.51          14.25          63.34          9.365         -7.982         -33.77         -18.36         -76.36          59.59          115.8
   0.04689              -13.07          23.51          14.26          63.34          9.364         -7.978         -33.77         -18.36         -76.34          59.59          115.8
   0.09378              -13.08          23.51          14.27          63.34          9.363         -7.975         -33.77         -18.35         -76.31           59.6          115.8
    0.1407              -13.08          23.51          14.28          63.33          9.361         -7.971         -33.78         -18.35         -76.29           59.6          115.8
    0.1876              -13.09          23.51          14.29          63.33           9.36         -7.967         -33.78         -18.34         -76.26           59.6          115.7
    0.2344              -13.09          23.51           14.3          63.33          9.359         -7.963         -33.79         -18.34         -76.24           59.6          115.7
    0.2813               -13.1          23.52          14.32          63.32          9.357         -7.958         -33.79         -18.33         -76.21           59.6          115.7
    0.3282               -13.1          23.52          14.33          63.32          9.356         -7.953          -33.8         -18.32         -76.17          59.61          115.7
    0.3751              -13.11          23.52          14.35          63.31          9.354         -7.948          -33.8         -18.32         -76.14          59.61          115.7
     0.422              -13.11          23.52          14.37          63.31          9.352         -7.942         -33.81         -18.31          -76.1          59.61          115.6
    0.4689              -13.12          23.52          14.39           63.3          9.351         -7.936         -33.82          -18.3         -76.06          59.61          115.6
    0.5158              -13.12          23.53           14.4           63.3          9.349          -7.93         -33.83         -18.29         -76.02          59.62          115.6
    0.5627              -13.13          23.53          14.43          63.29          9.346         -7.923         -33.83         -18.28         -75.97          59.62          115.5
    0.6096              -13.14          23.53          14.45          63.28          9.344         -7.915         -33.84         -18.28         -75.92          59.63          115.5
    0.6565              -13.15          23.53          14.47          63.28          9.341         -7.907         -33.85         -18.26         -75.87          59.63          115.5
    0.7033              -13.16          23.54           14.5          63.27          9.339         -7.898         -33.86         -18.25         -75.81          59.63          115.4
    0.7502              -13.17          23.54          14.53          63.26          9.336         -7.888         -33.87         -18.24         -75.75          59.64          115.4
    0.7971              -13.18          23.54          14.56          63.25          9.332         -7.878         -33.88         -18.23         -75.68          59.64          115.3
     0.844              -13.19          23.55           14.6          63.24          9.329         -7.867          -33.9         -18.21          -75.6          59.65          115.3
    0.8909               -13.2          23.55          14.64          63.23          9.325         -7.854         -33.91          -18.2         -75.52          59.66          115.2
    0.9378              -13.22          23.56          14.68          63.22          9.321          -7.84         -33.93         -18.18         -75.43          59.66          115.2
    0.9847              -13.23          23.56          14.72          63.21          9.316         -7.825         -33.94         -18.16         -75.33          59.67          115.1
     1.032              -13.25          23.57          14.78          63.19          9.311         -7.808         -33.96         -18.14         -75.22          59.68          115.0
     1.078              -13.27          23.57          14.83          63.17          9.305          -7.79         -33.98         -18.11         -75.09          59.69          114.9
     1.125              -13.29          23.58          14.89          63.16          9.298         -7.769         -34.01         -18.09         -74.96           59.7          114.8
     1.172              -13.31          23.59          14.97          63.14          9.291         -7.746         -34.03         -18.06         -74.81          59.71          114.7
     1.219              -13.34           23.6          15.04          63.11          9.283          -7.72         -34.06         -18.03         -74.64          59.72          114.6
     1.266              -13.37          23.61          15.13          63.09          9.274         -7.691          -34.1         -17.99         -74.45          59.74          114.5
     1.313               -13.4          23.62          15.23          63.06          9.264         -7.658         -34.13         -17.95         -74.23          59.75          114.3
      1.36              -13.44          23.63          15.35          63.03          9.252         -7.621         -34.17          -17.9         -73.98          59.77          114.1
     1.407              -13.48          23.65          15.48          62.99          9.239         -7.579         -34.22         -17.84          -73.7          59.79          113.9
     1.454              -13.53          23.66          15.62          62.95          9.224          -7.53         -34.28         -17.78         -73.38          59.82          113.7
       1.5              -13.59          23.68           15.8           62.9          9.206         -7.474         -34.34         -17.71         -73.01          59.85          113.4
     1.547              -13.66           23.7           16.0          62.84          9.186         -7.408         -34.42         -17.62         -72.58          59.88          113.1
     1.594              -13.74          23.73          16.23          62.77          9.162         -7.332          -34.5         -17.53         -72.07          59.92          112.8
     1.641              -13.83          23.76           16.5          62.69          9.134         -7.241          -34.6         -17.41         -71.48          59.96          112.4
     1.688              -13.94           23.8          16.83           62.6            9.1         -7.134         -34.73         -17.27         -70.77          60.02          111.9
     1.735              -14.07          23.84          17.22          62.49           9.06         -7.006         -34.87         -17.11         -69.92          60.08          111.3
